# AST/ASF file generated using VICON BodyLanguage
# -----------------------------------------------
:version 1.10
:name VICON
:units
  mass 1.0
  length 0.45
  angle deg
:documentation
   .ast/.asf automatically generated from VICON data using
   VICON BodyBuilder and BodyLanguage model FoxedUp or BRILLIANT.MOD
:root
   order TX TY TZ RX RY RZ
   axis XYZ
   position 0 0 0  
   orientation 0 0 0 
:bonedata
  begin
     id 1 
     name lhipjoint
     direction 0.702568 -0.596508 0.388042 
     length 2.56661 
     axis 0 0 0  XYZ
  end
  begin
     id 2 
     name lfemur
     direction 0.34202 -0.939693 0  
     length 6.58374  
     axis 0 0 20  XYZ
    dof rx ry rz
    limits (-160.0 20.0)
           (-70.0 70.0)
           (-60.0 70.0)
  end
  begin
     id 3 
     name ltibia
     direction 0.34202 -0.939693 0   
     length 6.62538   
     axis 0 0 20   XYZ
    dof rx
    limits (-10.0 170.0)
  end
  begin
     id 4 
     name lfoot
     direction 0.10455 -0.287249 0.952133   
     length 2.26699   
     axis -90 7.62852e-016 20   XYZ
    dof rx rz
    limits (-45.0 90.0)
           (-70.0 20.0)
  end
  begin
     id 5 
     name ltoes
     direction 1.53572e-011 -4.22322e-011 1   
     length 1.12949   
     axis -90 7.62852e-016 20   XYZ
    dof rx
    limits (-90.0 20.0)
  end
  begin
     id 6 
     name rhipjoint
     direction -0.728055 -0.574632 0.373811   
     length 2.66432  
     axis 0 0 0  XYZ 
  end
  begin
     id 7 
     name rfemur
     direction -0.34202 -0.939693 0   
     length 6.66732   
     axis 0 0 -20   XYZ
    dof rx ry rz
    limits (-160.0 20.0)
           (-70.0 70.0)
           (-70.0 60.0)
  end
  begin
     id 8 
     name rtibia
     direction -0.34202 -0.939693 0   
     length 6.59288   
     axis 0 0 -20   XYZ
    dof rx
    limits (-10.0 170.0)
 end
 begin
     id 9 
     name rfoot
     direction -0.119193 -0.327479 0.93731   
     length 2.38061  
     axis -90 -7.62852e-016 -20   XYZ
    dof rx rz
    limits (-45.0 90.0)
           (-20.0 70.0)
  end
  begin
     id 10 
     name rtoes
     direction -1.53547e-011 -4.21827e-011 1   
     length 1.17899   
     axis -90 -7.62852e-016 -20   XYZ
    dof rx
    limits (-90.0 20.0)
  end
  begin
     id 11 
     name lowerback
     direction -0.000416114 0.999912 -0.0132284   
     length 2.12109   
     axis 0 0 0   XYZ
    dof rx ry rz
    limits (-20.0 45.0)
           (-30.0 30.0)
           (-30.0 30.0)
  end
  begin
     id 12 
     name upperback
     direction -0.00136371 0.99809 0.0617608   
     length 2.10067   
     axis 0 0 0   XYZ
    dof rx ry rz
    limits (-20.0 45.0)
           (-30.0 30.0)
           (-30.0 30.0)
  end
  begin
     id 13 
     name thorax
     direction -3.43026e-005 0.997776 0.0666515   
     length 2.10618   
     axis 0 0 0   XYZ
    dof rx ry rz
    limits (-20.0 45.0)
           (-30.0 30.0)
           (-30.0 30.0)
  end
  begin
     id 14 
     name lowerneck
     direction 0.0398646 0.998418 0.0396592   
     length 1.83817   
     axis 0 0 0   XYZ
    dof rx ry rz
    limits (-20.0 45.0)
           (-30.0 30.0)
           (-30.0 30.0)
  end
  begin
     id 15 
     name upperneck
     direction -0.0367268 0.961527 -0.272244   
     length 1.81975   
     axis 0 0 0   XYZ
    dof rx ry rz
    limits (-20.0 45.0)
           (-30.0 30.0)
           (-30.0 30.0)
  end
  begin
     id 16
     name head
     direction -0.0182665 0.99536 -0.0944669  
     length 1.86026  
     axis 0 0 0   XYZ
    dof rx ry rz
    limits (-20.0 45.0)
           (-30.0 30.0)
           (-30.0 30.0)
  end
  begin
     id 17 
     name lclavicle
     direction 0.924239 0.361045 0.124212  
     length 3.26878  
     axis 0 0 0   XYZ
    dof ry rz
    limits (-20.0 10.0)
           (0.0 20.0)
  end
  begin
     id 18 
     name lhumerus
     direction 1 -4.48968e-011 -2.56583e-027   
     length 4.58538   
     axis 180 -30 -90   XYZ
    dof rx ry rz
    limits (-60.0 90.0)
           (-90.0 90.0)
           (-90.0 90.0)
  end
  begin
     id 19
     name lradius
     direction 1 -4.4898e-011 -5.50375e-027   
     length 2.68935   
     axis 180 -30 -90   XYZ
    dof rx
    limits (-10.0 170.0)
  end
  begin
     id 20
     name lwrist
     direction 1 -4.48939e-011 -1.48955e-026   
     length 1.34468   
     axis 9.0955e-015 90 90   XYZ
    dof ry
    limits (-180.0 0.0)
 end
  begin
     id 21 
     name lhand
     direction 1 -4.48936e-011 -2.97907e-026   
     length 0.585058   
     axis 1.90115e-014 90 90   XYZ
    dof rx rz
    limits (-90.0 90.0)
           (-45.0 45.0)
  end
  begin
     id 22 
     name lfingers
     direction 1 -4.49082e-011 -5.96235e-026   
     length 0.471689   
     axis 3.80223e-014 90 90   XYZ
    dof rx
    limits (0.0 90.0)
  end
  begin
     id 23
     name lthumb
     direction 0.707107 -6.3489e-011 0.707107   
     length 0.677253   
     axis -90 45 -3.84942e-014   XYZ
    dof rx rz
    limits (-45.0 45.0)
           (-45.0 45.0)
  end
  begin
     id 24 
     name rclavicle
     direction -0.923098 0.371783 0.0983239   
     length 3.19656  
     axis 0 0 0   XYZ 
    dof ry rz
    limits (-10.0 20.0)
           (-20.0 0.0)
  end
  begin
     id 25 
     name rhumerus
     direction -1 -4.48976e-011 -2.5492e-027  
     length 4.4745   
     axis 180 30 90   XYZ
    dof rx ry rz
    limits (-90.0 60.0)
           (-90.0 90.0)
           (-90.0 90.0)
  end
  begin
     id 26 
     name rradius
     direction -1 -4.48941e-011 -4.36555e-027   
     length 2.93896   
     axis 180 30 90   XYZ
    dof rx
    limits (-10.0 170.0)
  end
  begin
     id 27 
     name rwrist
     direction -1 -4.49044e-011 -1.49032e-026   
     length 1.46948   
     axis 9.0955e-015 -90 -90   XYZ
    dof ry
    limits (-180.0 0.0)
  end
  begin
     id 28
     name rhand
     direction -1 -4.48826e-011 -2.97749e-026   
     length 0.405092   
     axis 1.90115e-014 -90 -90   XYZ
    dof rx rz
    limits (-90.0 90.0)
           (-45.0 45.0)
  end
  begin
     id 29
     name rfingers
     direction -1 -4.49209e-011 -5.96602e-026   
     length 0.326596   
     axis 3.80223e-014 -90 -90   XYZ
    dof rx
    limits (0.0 90.0)
  end
  begin
     id 30
     name rthumb
     direction -0.707107 -6.34776e-011 0.707107   
     length 0.468928   
     axis -90 -45 3.84942e-014   XYZ
    dof rx rz
    limits (-45.0 45.0)
           (-45.0 45.0)
  end
:hierarchy
  begin
    root lhipjoint rhipjoint lowerback
    lhipjoint lfemur
    lfemur ltibia
    ltibia lfoot
    lfoot ltoes
    rhipjoint rfemur
    rfemur rtibia
    rtibia rfoot
    rfoot rtoes
    lowerback upperback
    upperback thorax
    thorax lowerneck lclavicle rclavicle
    lowerneck upperneck
    upperneck head
    lclavicle lhumerus
    lhumerus lradius
    lradius lwrist
    lwrist lhand lthumb
    lhand lfingers
    rclavicle rhumerus
    rhumerus rradius
    rradius rwrist
    rwrist rhand rthumb
    rhand rfingers
  end

#!OML:ASF H:\Punching\Project 1\Capture day 1\Session 1\female.ASF
:FULLY-SPECIFIED
:DEGREES
188
root 0.838087 15.1491 11.4427 14.5291 -19.0029 -3.69984
lowerback -1.34505 -2.57732 4.0437
upperback -6.79669 -3.18911 4.69835
thorax -6.28053 -1.68888 2.78449
lowerneck -4.00474 10.5882 16.3387
upperneck 27.8346 17.2309 -15.967
head 12.8326 7.96027 -6.56515
rclavicle 2.12451e-014 2.8625e-014
rhumerus -48.4275 35.0949 -81.6907
rradius 117.639
rwrist -7.25774
rhand -27.5851 11.5683
rfingers 7.12502
rthumb -0.985241 -18.4092
lclavicle 2.12451e-014 2.8625e-014
lhumerus 41.7806 -10.0573 10.7929
lradius 104.915
lwrist 47.1946
lhand 6.47622 21.785
lfingers 7.12502
lthumb 31.777 49.0354
rfemur 6.45108 5.10337 9.71041
rtibia -6.36111e-015
rfoot -12.9101 -18.5265
rtoes -12.4045
lfemur -43.1033 6.10275 -11.905
ltibia 43.1029
lfoot -9.98924 8.12435
ltoes 1.10135
189
root 0.879989 15.1331 11.5003 14.8313 -18.7397 -3.77017
lowerback -1.21131 -2.56085 3.9278
upperback -6.81215 -3.15483 4.79924
thorax -6.36236 -1.66237 2.96192
lowerneck -4.15342 10.5794 16.1828
upperneck 27.8803 17.2447 -16.0206
head 12.875 7.93725 -6.55395
rclavicle -5.3852e-014 2.14687e-014
rhumerus -50.5627 33.531 -80.9503
rradius 115.97
rwrist -6.48216
rhand -28.1925 12.043
rfingers 7.12502
rthumb -1.5718 -17.931
lclavicle -5.3852e-014 2.14687e-014
lhumerus 42.3781 -7.78763 9.88094
lradius 103.416
lwrist 44.2899
lhand 6.81204 20.8267
lfingers 7.12502
lthumb 32.0968 48.0132
rfemur 6.45799 4.91384 9.62932
rtibia 9.54166e-015
rfoot -12.9971 -18.6838
rtoes -12.5857
lfemur -43.745 6.06266 -12.1388
ltibia 43.8433
lfoot -10.4264 7.9347
ltoes 1.09866
190
root 0.919721 15.1159 11.5542 15.1101 -18.467 -3.84308
lowerback -1.06121 -2.54647 3.8285
upperback -6.80882 -3.12335 4.88671
thorax -6.43549 -1.63818 3.11624
lowerneck -4.29958 10.5789 16.0405
upperneck 27.906 17.2703 -16.0845
head 12.914 7.9203 -6.5462
rclavicle 4.21684e-014 3.97569e-015
rhumerus -52.5328 32.0244 -80.172
rradius 114.14
rwrist -5.53341
rhand -28.8484 12.5031
rfingers 7.12502
rthumb -2.20532 -17.4652
lclavicle 4.21684e-014 3.97569e-015
lhumerus 42.9469 -5.64723 8.97395
lradius 101.694
lwrist 40.3667
lhand 6.4693 19.3361
lfingers 7.12502
lthumb 31.7704 46.5878
rfemur 6.48379 4.71982 9.56989
rtibia 1.59028e-014
rfoot -13.0265 -18.8305
rtoes -12.7435
lfemur -44.327 6.0079 -12.3586
ltibia 44.5046
lfoot -10.8625 7.78147
ltoes 1.13737
191
root 0.95742 15.0983 11.6053 15.373 -18.2005 -3.92189
lowerback -0.915069 -2.52432 3.7612
upperback -6.78675 -3.08281 4.95158
thorax -6.48981 -1.6117 3.22738
lowerneck -4.44673 10.5796 15.9021
upperneck 27.9253 17.2929 -16.1372
head 12.9491 7.90335 -6.53451
rclavicle 3.12278e-014 4.69132e-014
rhumerus -54.3362 30.5549 -79.3827
rradius 112.181
rwrist -4.36572
rhand -29.4673 12.8654
rfingers 7.12502
rthumb -2.80302 -17.096
lclavicle 3.12278e-014 4.69132e-014
lhumerus 43.4996 -3.69756 8.02822
lradius 99.6296
lwrist 35.091
lhand 5.19338 17.1006
lfingers 7.12502
lthumb 30.5544 44.5861
rfemur 6.51814 4.53619 9.52827
rtibia 1.90833e-014
rfoot -13.0123 -18.9603
rtoes -12.8684
lfemur -44.8492 5.94151 -12.5587
ltibia 45.0903
lfoot -11.3 7.67327
ltoes 1.19236
192
root 0.993144 15.0806 11.6546 15.6247 -17.9531 -4.00834
lowerback -0.784469 -2.48755 3.73402
upperback -6.75778 -3.02405 4.99139
thorax -6.53205 -1.57908 3.28765
lowerneck -4.58301 10.575 15.7923
upperneck 27.962 17.3077 -16.1889
head 12.9907 7.88614 -6.53019
rclavicle 1.22377e-014 4.53229e-014
rhumerus -55.9986 29.1084 -78.5987
rradius 110.137
rwrist -2.92494
rhand -29.9361 13.0817
rfingers 7.12502
rthumb -3.25574 -16.8731
lclavicle 1.22377e-014 4.53229e-014
lhumerus 44.0355 -1.97016 7.07357
lradius 97.1099
lwrist 28.1756
lhand 2.72222 14.1412
lfingers 7.12502
lthumb 28.1951 42.0405
rfemur 6.55274 4.37511 9.49927
rtibia -9.54166e-015
rfoot -12.9809 -19.0654
rtoes -12.935
lfemur -45.3138 5.86354 -12.7335
ltibia 45.6126
lfoot -11.7311 7.61285
ltoes 1.26492
193
root 1.02695 15.064 11.7028 15.8623 -17.7394 -4.072
lowerback -0.684651 -2.43342 3.72124
upperback -6.72284 -2.9456 4.99496
thorax -6.55331 -1.53858 3.29844
lowerneck -4.74309 10.5719 15.7239
upperneck 28.0719 17.3225 -16.2236
head 13.0713 7.87215 -6.52836
rclavicle -2.32827e-014 -1.27222e-014
rhumerus -57.5225 27.6706 -77.8263
rradius 108.064
rwrist -1.17121
rhand -30.1311 13.1177
rfingers 7.12502
rthumb -3.44402 -16.8342
lclavicle -2.32827e-014 -1.27222e-014
lhumerus 44.5713 -0.425916 6.18185
lradius 94.0545
lwrist 19.3735
lhand -0.984797 11.0368
lfingers 7.12502
lthumb 24.6468 39.4697
rfemur 6.5768 4.24153 9.44352
rtibia 1.59028e-014
rfoot -12.9426 -19.1355
rtoes -12.9859
lfemur -45.7297 5.76599 -12.9098
ltibia 46.0847
lfoot -12.1416 7.60128
ltoes 1.31249
